<svg version="1.1" id="Layer_1" xmlns="http://www.w3.org/2000/svg" xmlns:xlink="http://www.w3.org/1999/xlink" x="0px"
     y="0px"
     width="100%" viewBox="0 0 416 416" enable-background="new 0 0 416 416" xml:space="preserve">
<style>
        @media (prefers-color-scheme: dark) {
        .cls-1 { fill: white; }
        }
        @media (prefers-color-scheme: light) {
        .cls-1 { fill: black; }
        }
        svg {
            border-radius: 20%;
        }
    </style>
    <rect class="cls-1" x="10" y="10" width="500" height="500"/>
    <path fill="#000000" opacity="1.000000" stroke="none"
          d="
M225.000000,417.000000
	C216.979095,417.000000 208.958191,417.000000 200.549591,416.662170
	C202.959274,411.791229 205.776367,407.270081 208.542404,402.717896
	C209.405792,401.297028 210.324692,399.807068 210.184799,398.075562
	C209.906952,394.636810 195.695572,385.632874 192.668198,387.298248
	C189.460083,389.063080 186.112686,389.492920 182.675110,389.920502
	C166.858307,391.887878 151.866760,390.001587 138.342117,380.725311
	C133.989304,377.739838 130.275284,373.968414 125.853828,370.348938
	C114.469376,385.451935 105.531647,401.419098 96.000000,417.000000
	C64.370010,417.000000 32.740025,417.000000 1.000000,417.000000
	C1.000000,322.979126 1.000000,228.958221 1.182744,134.634354
	C4.452838,137.228958 4.076784,133.604309 4.551564,132.456833
	C7.190075,126.079918 9.055216,124.659576 15.622852,124.792778
	C19.288635,124.867134 22.349100,123.275467 24.254065,120.522537
	C29.259384,113.289185 34.575947,106.121490 38.400326,98.261887
	C42.389317,90.063980 46.711231,82.372185 53.339409,76.069710
	C59.142128,70.552124 65.026543,65.132874 66.445335,56.581974
	C66.856239,54.105526 69.039421,52.382915 70.540749,50.390430
	C74.732483,44.827377 77.149872,38.909023 74.560577,31.775780
	C73.303551,28.312790 73.092438,24.643013 73.817039,20.932114
	C74.524216,17.310520 73.582115,14.052983 71.304962,11.091225
	C68.774925,7.800558 66.427139,4.369777 64.000000,1.000000
	C170.687561,1.000000 277.375122,1.000000 384.223633,1.161515
	C376.402496,4.990756 374.629395,13.871023 379.986755,22.396463
	C382.200775,25.919716 384.654144,26.650087 388.283600,24.506180
	C393.415527,21.474770 395.329834,22.184935 397.829559,27.636768
	C400.708893,33.916580 402.476410,40.416466 402.099243,47.429886
	C401.983643,49.579155 402.272186,52.117794 405.138519,52.350960
	C407.673615,52.557182 409.332245,50.633556 409.576569,48.417358
	C410.376740,41.158398 413.261261,34.338432 413.298248,26.859356
	C413.333160,19.805424 413.325592,12.511154 417.000000,6.000000
	C417.000000,142.881943 417.000000,279.763885 417.000000,417.000000
	C384.979980,417.000000 352.958649,417.000000 320.644928,416.710571
	C326.679291,411.865967 333.285156,407.727264 339.062866,402.378815
	C341.824188,399.822693 342.237518,398.063354 339.217102,395.232269
	C337.874237,396.719696 336.146729,398.618042 334.514008,396.082764
	C330.750427,390.238800 325.803986,385.147491 323.667664,378.252594
	C321.693939,371.882629 319.287964,365.646606 316.717651,358.343750
	C316.325043,362.107788 318.801086,364.619843 317.107422,367.436554
	C315.012177,366.487427 314.801666,364.688934 314.143494,363.238007
	C308.848602,351.565094 304.570862,339.489410 300.158508,327.471252
	C299.160980,324.754211 297.749207,322.628021 294.861450,322.068878
	C287.908569,320.722595 281.832123,317.084076 275.325195,314.601440
	C271.299927,313.065674 269.163239,313.902222 267.094604,317.228455
	C261.556427,326.133301 255.910263,334.971069 250.300995,343.831665
	C247.278046,348.606781 244.038193,353.264984 246.956100,359.407440
	C247.540451,360.637604 247.483932,362.499603 247.034256,363.839111
	C244.557419,371.217499 245.533188,378.959961 244.412689,386.467682
	C242.465851,399.512390 236.259048,409.866974 225.000000,417.000000
M178.153473,249.667633
	C183.805191,245.673874 188.212799,240.237381 194.125900,235.059021
	C194.511047,239.866989 191.819901,242.128632 190.216568,244.889771
	C186.138794,251.912231 180.967560,258.336884 178.312393,266.134033
	C177.788849,267.671478 176.378677,269.876373 178.932587,270.891602
	C180.903198,271.674957 181.970581,269.860535 182.697571,268.389862
	C186.920319,259.847382 192.616379,252.203262 197.432220,244.024918
	C198.199738,242.721497 198.827042,241.409378 198.673141,239.800003
	C197.873840,231.441849 187.858673,223.734909 179.859009,225.745422
	C173.492218,227.345566 167.649017,230.203720 163.178879,235.281631
	C160.098297,238.781097 157.086533,242.343170 153.932800,245.775085
	C152.796478,247.011642 151.775177,248.968628 149.476776,247.814941
	C148.533951,246.121368 149.509232,244.781998 150.327744,243.635452
	C157.064331,234.199310 164.295471,225.419769 175.936478,221.514206
	C184.807831,218.537842 193.408691,220.913284 198.992996,228.489304
	C200.134628,230.038101 200.685074,232.190277 203.149582,232.759720
	C203.602463,232.447403 204.311020,232.198303 204.634949,231.699448
	C209.440338,224.299362 214.236572,216.892456 218.934647,209.424072
	C220.274475,207.294220 219.220490,205.820526 217.306046,204.444458
	C210.976273,199.894806 209.388962,194.937729 211.466324,187.531265
	C212.565933,183.610718 214.614822,180.185608 216.808823,176.849426
	C218.355774,174.497147 218.248932,172.548035 216.169144,170.665482
	C208.776230,163.973663 207.346878,155.842560 210.059509,146.517380
	C211.371902,142.005829 209.167847,136.690933 205.458664,134.932632
	C203.377441,133.946030 200.983032,133.644424 198.809280,132.823532
	C194.484344,131.190262 185.966873,133.501755 182.852722,137.277328
	C197.458725,152.991318 200.405853,159.050842 196.002243,164.788666
	C193.676895,164.097260 192.974030,161.878891 191.960907,160.083176
	C189.576004,155.856003 186.837433,151.888824 183.702820,148.198288
	C180.097015,143.953033 175.333923,142.159653 169.914246,142.499496
	C161.494659,143.027435 154.096664,146.380096 147.663330,151.714050
	C143.431305,155.222885 140.383652,159.609451 140.531631,165.413284
	C140.587479,167.604111 140.051193,169.607529 139.773270,171.693436
	C138.760803,179.292145 137.615341,187.120255 145.098297,192.695847
	C147.067093,194.162827 147.903198,196.253296 147.241379,199.278030
	C141.307785,198.665436 136.376160,196.408768 131.701736,192.768005
	C131.602402,194.208664 131.433701,195.514664 131.435928,196.820358
	C131.445740,202.560181 130.733490,208.280777 136.497925,212.516449
	C138.705215,214.138336 140.990128,217.232269 140.368469,220.971710
	C137.100113,221.067566 136.331177,218.642075 135.039139,216.771637
	C130.849915,210.707077 122.825127,208.007874 117.171997,210.703491
	C110.639236,213.818542 106.928688,222.318863 108.834831,229.802734
	C110.854546,237.732574 115.668327,241.123154 124.226997,241.003723
	C126.868500,240.966858 129.707230,239.669220 132.372696,241.494080
	C130.406860,247.200912 126.081825,247.732605 121.346870,247.094482
	C102.082848,244.498337 100.346611,223.632812 107.127312,213.236938
	C108.022980,211.863754 110.223808,210.435165 109.566925,209.103638
	C106.862915,203.622482 107.483040,196.931534 103.039207,192.101822
	C96.506210,185.001541 90.629951,185.710770 86.254745,194.272751
	C84.784904,197.149109 85.178902,200.112732 85.744011,203.063797
	C86.593491,207.499832 88.176315,211.686676 90.001518,215.824448
	C91.092308,218.297287 92.805130,221.617966 87.415512,221.417160
	C86.202950,221.371979 85.770439,222.478256 85.612274,223.479202
	C83.815880,234.847580 83.613289,245.941650 89.701599,256.427094
	C97.552528,269.948181 110.633369,275.460327 124.552238,279.594116
	C129.761597,281.141266 135.289749,281.615021 140.672562,282.578186
	C135.910889,279.854065 132.677551,276.033569 129.477936,272.165314
	C126.219543,268.226013 123.538811,263.878204 118.503143,261.524261
	C115.665642,260.197845 114.760773,256.678070 115.929192,253.604828
	C117.138969,250.422775 120.253578,250.638733 122.808250,251.406631
	C129.937393,253.549515 136.971863,255.124100 144.079391,251.432465
	C144.233826,251.352264 144.622772,251.723587 145.196045,252.053131
	C145.364807,255.719711 142.397034,256.758820 139.852127,258.171509
	C138.296814,259.034912 136.057724,259.667938 136.727753,262.026154
	C137.399872,264.391724 139.396423,265.302979 141.850479,265.021179
	C143.173737,264.869263 144.583481,264.925812 145.799927,264.473511
	C156.720627,260.412781 167.826187,256.742828 178.153473,249.667633
M275.075043,98.461189
	C278.526611,90.583641 278.131226,88.692108 272.192688,85.362282
	C279.256683,73.736206 288.958954,73.452789 299.851868,79.471062
	C300.884491,76.214478 298.925934,75.055168 297.568481,73.795357
	C289.462280,66.272346 276.774475,68.062653 268.608032,77.943092
	C267.548370,79.225189 266.744354,80.253769 264.986664,79.718552
	C263.829163,79.366104 262.780396,78.828674 262.606506,77.463593
	C262.384338,75.719551 263.417786,74.615234 264.773071,73.850105
	C265.922485,73.201210 267.214905,72.811653 268.409882,72.236427
	C272.402496,70.314575 276.240326,68.161903 280.710083,63.986961
	C275.696472,64.288017 276.634308,61.680649 276.652100,59.575245
	C276.690704,55.004787 276.084503,50.443253 273.806366,46.534378
	C267.837189,36.292297 259.609467,30.105539 247.783829,38.650513
	C246.300995,39.721981 244.771393,40.746700 243.181717,41.649071
	C237.953140,44.617039 235.098602,43.450855 233.845978,37.512066
	C233.129272,34.114170 233.140045,30.569073 232.680435,27.109230
	C232.018600,22.127102 231.075562,17.195339 227.468826,13.344765
	C226.260284,12.054516 224.522354,9.956650 222.917343,11.400762
	C220.638306,13.451345 218.613861,12.551510 216.439545,12.086681
	C206.375458,9.935160 202.217239,12.872283 201.193146,22.989397
	C201.050812,24.395412 200.683014,25.693638 199.339783,26.283503
	C198.045044,26.852081 197.113098,25.925011 196.367035,25.010551
	C191.847290,19.470591 186.633408,15.986186 178.944153,19.791372
	C178.845871,14.905449 183.691681,14.892282 185.025360,12.037054
	C181.111160,9.584840 175.529160,9.906400 172.572906,12.621344
	C168.337540,16.510979 164.878189,31.862988 167.214951,37.088188
	C167.984329,38.808552 169.077850,40.282543 167.486008,42.068691
	C165.903641,43.844189 164.203964,42.874210 162.428360,42.481918
	C157.210953,41.329220 152.849442,42.849892 149.651459,47.163296
	C146.979736,50.766865 146.568283,57.181751 149.420273,60.313198
	C153.867508,65.196213 159.109894,68.868973 166.366348,68.180756
	C179.071503,66.975761 191.645432,68.027596 204.038132,71.020638
	C214.071793,73.443924 215.796310,72.353508 217.493698,62.018646
	C217.573776,61.531120 217.624359,61.015087 217.556015,60.531059
	C217.298294,58.705681 217.889587,57.398193 219.884888,57.673489
	C222.148956,57.985867 221.604172,59.872677 221.224747,61.229210
	C220.284164,64.592163 219.147171,67.901024 218.055099,71.220436
	C217.498444,72.912369 217.179382,74.663490 219.067245,75.604668
	C226.144363,79.132866 233.282578,82.538490 240.827560,86.198494
	C241.634155,77.230087 239.638641,69.455147 234.935867,61.535538
	C239.024933,62.124538 239.904541,64.441139 240.961441,66.382881
	C244.147598,72.236412 244.966019,78.719650 245.197937,85.209610
	C245.318146,88.573151 246.663849,90.640518 249.093704,92.763580
	C254.235397,97.256088 259.634308,100.402992 266.647003,101.664734
	C270.576141,102.371666 272.877838,102.746132 275.075043,98.461189
M182.717834,326.830109
	C174.897614,325.315155 167.302063,322.843567 159.285568,322.075684
	C154.163605,321.585052 149.441345,319.104065 144.881973,316.664673
	C143.516068,315.933838 141.906403,315.074280 142.804886,312.315796
	C145.850601,313.540314 148.717667,314.667786 151.564102,315.845062
	C153.995865,316.850800 155.990738,316.704895 157.631454,314.286682
	C161.747421,308.220459 165.868408,302.164368 168.643921,295.329010
	C170.330704,291.174957 169.208664,289.381500 164.626297,289.371002
	C159.474731,289.359222 154.265320,290.231049 149.185867,289.705566
	C143.710098,289.139130 139.294510,291.020966 135.297836,294.031281
	C130.120560,297.930786 125.346466,302.357147 121.379433,307.558777
	C107.051399,326.345825 108.030899,341.948364 123.203911,360.284973
	C136.744370,376.648621 152.757217,386.777802 174.673737,385.836792
	C178.868088,385.656677 181.076126,384.887024 182.058289,380.016296
	C185.101669,364.923584 189.300552,350.229218 201.818604,339.600281
	C205.304779,336.640198 204.532471,333.793091 200.135574,332.278748
	C194.641922,330.386627 189.034927,328.823608 182.717834,326.830109
M296.736420,114.245338
	C293.668091,117.050079 290.560425,119.813423 287.549438,122.678444
	C286.208588,123.954277 285.102112,125.451134 285.580231,127.525146
	C287.231262,134.687027 290.354797,140.576691 298.012360,143.017853
	C303.044708,144.622131 308.112396,145.333817 313.246307,144.167068
	C316.948853,143.325623 318.621277,144.745590 319.026459,148.207962
	C319.544128,152.631378 321.645111,156.390152 323.787872,160.166061
	C325.511505,163.203384 327.945892,164.880219 331.485626,164.648209
	C335.288147,164.398972 337.565521,162.301392 338.490814,158.640305
	C338.995850,156.642212 339.665833,154.522430 342.181488,154.624863
	C345.144440,154.745499 344.371735,157.387619 344.820831,159.189789
	C344.920898,159.591278 345.412659,159.895111 345.885590,160.424774
	C348.579559,158.635788 351.232849,156.100998 354.477325,160.008728
	C356.476227,155.626968 357.483887,151.730682 357.362122,147.573410
	C355.619263,149.561386 355.677521,152.597702 352.347107,153.655594
	C357.700989,135.455124 362.868622,117.283005 365.223755,98.672745
	C363.177917,97.400558 361.481293,98.043518 359.861694,97.989380
	C352.451874,97.741707 349.045959,95.167618 346.759491,88.040848
	C345.883545,85.310524 345.686493,82.507668 345.549286,79.672813
	C345.440125,77.417221 345.703461,75.006302 343.301422,72.704262
	C327.918427,86.410316 312.578461,100.078003 296.736420,114.245338
M307.802368,321.354340
	C320.734436,318.773499 332.642975,314.197693 341.446289,303.763763
	C343.922150,300.829254 344.987213,297.182312 344.414886,293.476868
	C343.056671,284.683258 339.952545,276.824707 331.776245,271.865753
	C325.619202,268.131439 319.191742,265.033722 312.310364,262.998932
	C300.749237,259.580353 298.195862,260.527069 291.542023,269.286591
	C289.993286,271.325439 289.726074,273.474548 289.480316,275.784943
	C289.179779,278.609680 289.005676,281.612244 286.528931,283.482361
	C281.810547,287.045013 279.026917,292.287445 274.956940,296.422577
	C272.123474,299.301361 268.380798,301.322693 265.934601,305.376770
	C273.865051,308.813599 281.351257,312.308289 289.031677,315.305084
	C294.902374,317.595795 301.018829,319.256592 307.802368,321.354340
M258.876282,275.586060
	C262.330383,278.574677 263.581482,283.101898 266.677917,286.438934
	C272.552795,292.770355 272.700470,292.944031 276.914764,285.642670
	C278.828186,282.327606 280.619598,278.940887 282.411835,275.557831
	C283.023224,274.403809 283.468048,273.161560 284.259583,271.335327
	C282.956787,271.736145 281.979095,272.706848 280.935944,271.039856
	C284.503662,262.733276 288.326385,254.211395 288.227722,244.344666
	C288.096130,231.187683 286.865051,218.420578 280.816132,206.533478
	C279.457275,203.863052 277.974213,200.909546 273.448669,201.524109
	C277.221222,210.040619 283.281403,217.685211 280.891357,228.001221
	C277.471558,226.602676 277.998871,224.506348 277.531342,222.832352
	C275.089325,214.088669 272.388916,205.487778 263.596344,200.750061
	C260.901611,199.298050 258.259857,198.950958 255.717728,201.147156
	C253.120972,203.390518 251.674286,206.046799 252.753769,209.530075
	C253.392197,211.590103 254.160049,213.620087 255.013901,215.601440
	C257.664062,221.751083 261.370636,227.283920 265.070099,232.832275
	C266.144531,234.443680 268.231598,236.107040 266.362610,238.532425
	C263.832428,238.730286 262.863861,236.799271 261.712891,235.244476
	C258.423889,230.801468 254.084793,227.913437 248.900253,226.115372
	C246.235336,225.191132 243.583710,224.633591 241.422577,226.815689
	C239.388214,228.869736 239.416824,231.468735 240.004547,234.281525
	C240.871445,238.430328 243.452744,241.412766 246.012543,244.477707
	C248.098755,246.975616 249.605209,249.502151 248.705704,253.086060
	C245.815002,264.603363 247.921371,269.303955 258.876282,275.586060
M160.579727,135.934982
	C168.999908,133.970917 177.409714,131.960785 185.844635,130.062241
	C190.043854,129.117081 191.408737,127.081657 189.474167,122.927010
	C187.936371,119.624496 186.591782,116.185417 186.941269,112.361450
	C187.432205,106.989563 185.124908,105.346878 180.294220,107.756958
	C174.779770,110.508163 169.394928,113.509590 163.261337,114.765434
	C155.962158,116.259941 149.546768,115.379196 145.626480,108.131462
	C144.129303,105.363510 142.344162,105.778709 140.338104,107.193481
	C129.516296,114.825516 116.528664,119.061722 106.888229,128.568314
	C105.734016,129.706512 103.987320,130.218307 102.688095,131.240204
	C99.668526,133.615173 95.944695,134.719620 93.536514,138.347031
	C89.690285,144.140549 88.476257,151.013931 84.828133,156.820511
	C82.890091,159.905212 80.801270,162.710510 77.019142,163.232635
	C73.374565,163.735748 72.580620,165.902618 72.325447,169.105225
	C71.852806,175.036972 74.750542,180.076645 76.215149,185.493164
	C76.572777,186.815765 77.224869,188.106003 78.699738,188.359787
	C80.487457,188.667404 81.405739,187.289444 82.147957,185.977737
	C82.797409,184.829987 83.264915,183.574173 83.759117,182.344513
	C86.931808,174.450165 90.586052,166.773544 94.864326,159.432907
	C98.119652,153.847443 101.072647,153.987152 104.131027,159.491364
	C104.595291,160.326904 104.762985,161.459854 106.122047,161.318085
	C108.123474,153.568985 110.579659,145.946899 111.268425,137.797226
	C114.965355,141.122650 113.601540,146.796829 118.265221,149.265823
	C120.872826,146.653488 119.402260,144.177963 118.415466,141.843628
	C117.074287,138.670975 115.828354,135.723206 118.969620,132.739716
	C121.886032,129.969788 124.675438,131.170975 127.733620,132.283722
	C138.097473,136.054718 148.485153,139.897720 160.579727,135.934982
M300.453644,243.767838
	C301.090454,245.763748 300.872040,248.600769 303.419891,249.078445
	C306.058014,249.573029 306.769806,246.790802 307.859009,245.051483
	C311.293304,239.567429 314.585815,233.994858 317.976990,228.483490
	C328.773468,210.936981 340.764252,194.065598 348.619385,174.854218
	C349.939880,171.624603 352.181091,168.466980 351.321320,164.693085
	C349.686615,164.063309 348.941193,165.249344 347.913879,165.664795
	C339.734131,168.972641 331.177551,171.281784 322.925842,167.070282
	C318.433594,164.777512 315.243347,165.173126 311.480042,167.650787
	C304.617584,172.168854 304.341003,172.097458 297.858124,166.467056
	C293.957489,163.079346 291.348572,163.707687 289.729614,168.530624
	C289.150452,170.255936 288.704773,172.062561 288.488892,173.866852
	C287.667419,180.732422 290.467102,185.592850 296.743073,188.383652
	C300.894501,190.229736 302.863495,193.692383 302.745361,197.932312
	C302.551331,204.897354 302.606476,212.028687 301.083527,218.756470
	C299.238556,226.906616 298.746460,234.828156 300.453644,243.767838
M116.862717,112.258255
	C123.116951,109.203316 129.436798,106.431091 136.031021,104.048172
	C141.413162,102.103241 147.223572,98.138115 150.108551,93.402267
	C152.915131,88.795097 156.150314,87.851479 160.340637,87.156624
	C163.456604,86.639915 166.615997,86.323647 169.769058,86.112183
	C172.118500,85.954605 174.021912,85.207306 175.094604,83.043495
	C176.447845,80.313759 179.791061,77.372581 177.453186,74.527748
	C174.829819,71.335548 171.374115,74.190697 168.394379,75.462700
	C165.791214,76.573959 163.876419,79.264076 160.273209,79.231995
	C161.068207,75.749886 164.719177,75.397942 166.161514,72.451042
	C164.232681,72.451042 162.614532,72.293640 161.035812,72.476494
	C150.485611,73.698441 140.567184,77.124344 131.264877,82.051498
	C105.645142,95.621468 84.986359,115.579887 63.929119,134.994598
	C60.202442,138.430603 60.502609,142.712143 62.821060,146.411972
	C66.136864,151.703400 66.226837,156.344650 63.012970,161.745712
	C60.598503,165.803360 60.689983,170.415283 63.641953,175.360596
	C66.609634,171.974182 68.090233,168.862839 68.978455,165.217865
	C69.900337,161.434708 69.791824,156.481415 75.903740,156.581039
	C76.576439,156.591995 77.436531,155.373047 77.929741,154.555618
	C83.384369,145.515320 88.799080,136.450745 94.178848,127.365662
	C94.874321,126.191185 95.505241,124.850456 96.855850,124.552170
	C104.713905,122.816689 110.190651,117.271042 116.862717,112.258255
M209.624390,388.965790
	C217.730789,393.494324 218.154892,395.107025 213.398438,403.362366
	C212.484467,404.948669 211.508835,406.501099 210.640350,408.111633
	C208.620178,411.857788 209.765884,414.075317 214.003708,414.608276
	C217.497665,415.047699 220.202286,414.066528 221.600906,410.482239
	C222.760391,407.510834 223.271637,404.409454 223.949768,401.325348
	C224.368362,399.421631 223.935013,396.925171 226.763184,395.720551
	C228.860458,400.626678 226.165009,405.247314 226.345779,410.428589
	C235.728928,405.696503 236.984100,398.283325 234.315842,389.818451
	C236.091309,389.302673 236.769714,389.752502 237.297363,390.435516
	C237.798950,391.084808 238.212143,391.802399 238.808838,392.709991
	C239.185272,391.785980 239.451981,391.341980 239.548615,390.863647
	C243.214539,372.718201 238.673676,357.309601 224.281784,345.198700
	C217.163223,339.208405 212.350433,338.617859 205.708282,343.269989
	C199.084778,347.909088 194.884872,354.414856 192.040634,361.888245
	C191.446884,363.448303 191.756577,364.751190 192.509995,366.151855
	C196.951370,374.408722 202.331604,381.962921 209.624390,388.965790
M218.241058,127.280975
	C223.111069,132.796814 226.539993,133.052994 230.000595,127.387558
	C236.050247,117.483536 239.712128,106.654396 240.898285,95.041733
	C241.103897,93.028893 240.668213,91.452126 238.878494,90.337357
	C232.652863,86.459557 226.234711,82.959282 219.406784,80.243835
	C217.048126,79.305801 214.969894,79.453537 214.282013,82.257652
	C212.199631,90.746513 205.408432,97.556999 208.174026,107.982658
	C210.121506,115.324242 211.623184,121.947212 218.241058,127.280975
M169.494476,300.903259
	C167.087646,305.079865 164.710144,309.273743 162.264374,313.427429
	C160.416138,316.566376 160.815994,318.454224 164.867432,318.637665
	C172.231064,318.971161 179.215988,321.290741 186.357498,322.791595
	C189.400131,323.431091 192.693680,325.665070 194.932953,321.218170
	C195.484329,320.123169 197.028595,320.235443 198.142868,320.742645
	C200.863251,321.980774 203.768234,322.994568 206.178680,324.694550
	C211.117386,328.177643 214.875320,328.181000 219.184906,324.220642
	C221.623611,321.979584 221.777084,319.665436 219.579453,317.275787
	C216.160553,313.558105 212.031433,313.692780 207.616089,315.138092
	C198.183258,318.225891 194.352005,315.839508 192.793076,305.986450
	C192.169083,302.042542 191.820435,298.043427 190.154999,294.334442
	C187.133575,287.605652 181.153030,286.252411 175.658859,291.027802
	C172.784409,293.526154 171.601578,297.061218 169.494476,300.903259
M253.446426,299.831665
	C252.457367,298.278381 251.583450,296.671631 251.419006,294.794189
	C251.145065,291.666473 249.785172,290.693970 246.462250,291.212158
	C234.049942,293.147736 229.559402,301.167938 234.877197,312.709564
	C237.492279,318.385284 239.425079,323.687012 236.899094,330.290466
	C234.928497,335.442017 240.201126,336.877075 243.813080,338.938568
	C247.586472,341.092255 248.492493,338.124695 249.868347,336.077911
	C254.502625,329.183838 258.965851,322.174622 263.611511,315.288391
	C265.460632,312.547485 265.365417,310.592926 262.361664,308.747864
	C258.938202,306.645020 256.113098,303.806610 253.446426,299.831665
M174.786713,99.672607
	C177.116806,102.104477 179.462692,106.464394 183.183685,103.374649
	C187.897614,99.460434 192.557571,99.741486 197.648895,101.092735
	C200.917358,101.960197 203.094009,101.305710 204.347336,97.943962
	C206.379166,92.494148 208.549438,87.094841 210.730423,81.702171
	C211.963928,78.652260 210.902069,77.049103 207.841583,76.203560
	C201.421814,74.429916 194.918961,73.147652 188.315216,72.295517
	C184.328537,71.781082 181.665359,72.421967 181.235367,77.304428
	C181.029236,79.645020 179.173355,81.798935 178.342834,84.136261
	C177.274872,87.141777 175.583893,88.406204 172.166046,88.645981
	C167.675766,88.960991 163.064194,89.637756 157.763870,92.120636
	C164.310760,93.900116 170.227249,94.571877 174.786713,99.672607
M254.029312,101.482880
	C251.491272,99.476273 249.387772,96.747414 245.899368,96.308205
	C244.585892,97.617378 244.487091,99.118408 244.178925,100.585724
	C242.394363,109.082893 239.800629,117.323990 236.150040,125.214989
	C232.637314,132.807983 234.126083,135.157532 242.702988,135.318161
	C244.520065,135.352203 246.421631,135.273773 248.150238,134.778946
	C252.682755,133.481506 257.200867,133.006973 261.945709,133.233246
	C268.703644,133.555511 272.975494,125.762184 269.639252,119.787880
	C265.768646,112.856720 260.478088,107.143242 254.029312,101.482880
M351.744354,70.360779
	C353.080963,71.539894 352.416534,73.171539 352.682983,74.588707
	C353.345306,78.111740 354.612091,81.297943 357.458374,83.660622
	C362.961609,88.228813 368.360138,86.376884 369.657104,79.481339
	C369.872070,78.338661 370.116791,77.201614 370.336731,76.059853
	C372.253479,66.109085 374.161957,56.156715 376.089600,46.208069
	C376.346924,44.880138 376.821838,43.369366 375.175751,42.765430
	C373.614166,42.192505 372.867249,43.548008 372.102112,44.674423
	C370.989227,46.312817 370.100159,48.336575 368.566223,49.413105
	C363.354492,53.070713 359.288055,57.966724 354.436890,61.959934
	C349.038361,66.403671 346.000244,71.154633 349.609344,77.855873
	C350.380768,75.602280 348.510101,72.472893 351.744354,70.360779
M248.816772,163.342133
	C251.204086,158.059174 256.688965,155.184113 259.202148,150.021118
	C260.262695,147.842377 263.905884,145.826157 261.261719,143.248856
	C259.023071,141.066788 255.582947,142.029373 252.766800,143.285873
	C249.927246,144.552841 248.022354,146.809723 246.499268,149.497437
	C244.190674,153.571289 243.192657,158.165634 241.245743,162.341187
	C240.079208,164.843124 239.796524,166.949905 240.712677,169.146759
	C245.102081,169.990555 247.378647,167.804871 248.816772,163.342133
M173.141006,279.440857
	C175.970139,277.786652 174.163376,277.066620 172.521027,276.256775
	C163.391998,271.755096 159.225876,272.950928 151.720367,282.583008
	C159.103256,283.256500 165.717880,280.824677 173.141006,279.440857
M91.413803,61.473339
	C92.394852,53.798702 95.219559,46.996372 102.527527,41.125629
	C93.662704,43.229424 86.471031,51.807735 86.604973,58.779804
	C86.632004,60.186604 87.222038,61.773525 88.041367,62.931507
	C89.433479,64.899033 90.496834,63.836926 91.413803,61.473339
M310.621979,344.893066
	C311.800262,346.959381 311.827667,349.646545 314.793396,352.226746
	C313.895966,343.135529 311.956726,335.449768 309.392670,327.909515
	C308.924500,326.532654 307.391846,326.040253 306.032715,326.531189
	C304.066437,327.241516 304.579865,328.804596 305.128845,330.266174
	C306.871124,334.904816 308.609192,339.545044 310.621979,344.893066
M237.442505,179.938248
	C235.618500,178.771896 233.567764,179.244354 231.658554,179.358185
	C227.967484,179.578278 225.001923,184.026642 225.887833,187.654846
	C226.619720,190.652313 230.310440,192.552856 231.600311,190.488403
	C233.666870,187.180801 236.937027,184.570221 237.442505,179.938248
M365.795868,92.192528
	C365.971405,90.871437 365.135834,90.330139 364.063171,90.342049
	C358.831940,90.400085 355.283783,86.834923 351.161896,83.454346
	C351.271759,92.121727 356.746948,95.274605 365.795868,92.192528
M170.123672,269.421600
	C173.200806,268.828033 176.854599,262.016296 175.305786,259.707062
	C175.055176,259.333435 174.550385,258.867493 174.177261,258.879639
	C170.632095,258.995026 169.309021,261.763184 167.891220,264.349518
	C166.720581,266.484955 166.338806,268.444305 170.123672,269.421600
M118.314278,203.706558
	C118.979233,201.674667 118.499443,199.755280 117.448853,198.045410
	C116.387817,196.318558 114.726784,195.955215 113.398323,197.600967
	C111.577553,199.856613 111.555565,202.885468 112.877640,205.025925
	C114.215378,207.191742 116.335609,205.456894 118.314278,203.706558
M124.090851,203.307846
	C125.320992,204.379272 126.502968,205.659744 128.542557,204.193451
	C127.936478,201.362808 126.231102,199.429764 123.949150,197.829819
	C121.590996,199.603424 122.972389,201.199570 124.090851,203.307846
z"/>
    <path fill="#000000" opacity="1.000000" stroke="none"
          d="
M178.862915,178.832336
	C184.382156,174.510620 189.467575,170.180191 195.522690,167.258102
	C198.131577,165.999100 200.793060,164.945831 204.174561,165.976700
	C180.603943,177.092224 165.532257,196.073425 154.082962,219.299728
	C151.374619,214.841827 153.603241,211.980240 155.103500,209.291519
	C161.385681,198.032822 169.014664,187.780182 178.862915,178.832336
z"/>
    <path fill="#000000" opacity="1.000000" stroke="none"
          d="
M167.655640,171.131927
	C167.878738,167.446228 168.757355,164.485031 172.745407,164.747192
	C175.654953,164.938477 177.113571,167.216599 177.008224,169.994095
	C176.877060,173.452255 175.003220,176.396561 171.647964,176.972183
	C167.846207,177.624405 167.856125,174.234100 167.655640,171.131927
z"/>
    <path fill="#000000" opacity="1.000000" stroke="none"
          d="
M102.747726,205.437851
	C101.320679,207.765213 99.998840,210.137039 97.237144,208.762802
	C94.690430,207.495544 94.511314,204.822418 95.073990,202.283340
	C95.612709,199.852386 97.583359,199.275757 99.660751,199.662048
	C102.593239,200.207352 103.793297,202.093155 102.747726,205.437851
z"/>
</svg>